<?xml version="1.0" encoding="UTF-8" standalone="no"?>
<!-- Created with Inkscape (http://www.inkscape.org/) -->

<svg
   width="166.03285mm"
   height="144.86087mm"
   viewBox="0 0 166.03285 144.86087"
   version="1.1"
   id="svg5"
   inkscape:version="1.1.1 (3bf5ae0d25, 2021-09-20)"
   sodipodi:docname="kubecsr_logo.svg"
   inkscape:export-filename="C:\Users\Tony\OneDrive\Desktop\kubecsr_logo.png"
   inkscape:export-xdpi="96"
   inkscape:export-ydpi="96"
   xmlns:inkscape="http://www.inkscape.org/namespaces/inkscape"
   xmlns:sodipodi="http://sodipodi.sourceforge.net/DTD/sodipodi-0.dtd"
   xmlns="http://www.w3.org/2000/svg"
   xmlns:svg="http://www.w3.org/2000/svg">
  <sodipodi:namedview
     id="namedview7"
     pagecolor="#323232"
     bordercolor="#666666"
     borderopacity="1.0"
     inkscape:pageshadow="2"
     inkscape:pageopacity="0"
     inkscape:pagecheckerboard="false"
     inkscape:document-units="mm"
     showgrid="false"
     inkscape:zoom="1.4801593"
     inkscape:cx="97.962429"
     inkscape:cy="231.73181"
     inkscape:window-width="2736"
     inkscape:window-height="1790"
     inkscape:window-x="-11"
     inkscape:window-y="-11"
     inkscape:window-maximized="1"
     inkscape:current-layer="layer1"
     width="209mm"
     fit-margin-top="0"
     fit-margin-left="0"
     fit-margin-right="0"
     fit-margin-bottom="0"
     height="145.86087mm" />
  <defs
     id="defs2">
    <rect
       x="270.81744"
       y="707.25293"
       width="282.19037"
       height="106.62104"
       id="rect21377" />
  </defs>
  <g
     inkscape:label="Layer 1"
     inkscape:groupmode="layer"
     id="layer1"
     transform="translate(-5.0711511,-19.879195)">
    <path
       style="fill:#241f1c;fill-opacity:1;stroke:#ffffff;stroke-width:0.917;stroke-linecap:round;stroke-linejoin:round;stroke-miterlimit:4;stroke-dasharray:none;stroke-opacity:1;paint-order:stroke fill markers"
       d="m 107.65498,139.30852 v -0.6245 l 0.96882,-0.39274 c 3.9866,-1.61604 8.53377,-4.20211 12.31187,-7.00201 1.48318,-1.09917 1.49941,-1.11627 1.63532,-1.72328 0.22211,-0.99186 0.27912,-2.58844 0.12137,-3.39818 -0.18409,-0.94488 -0.54346,-1.6575 -1.33487,-2.64696 -0.82676,-1.03365 -1.1734,-1.65221 -1.539,-2.74621 -0.42361,-1.26758 -0.56675,-2.41223 -0.41807,-3.34294 0.19091,-1.19502 1.32688,-4.64894 2.29236,-6.96993 0.89545,-2.15264 1.52703,-4.12664 1.88403,-5.88847 0.26014,-1.28386 0.0988,-3.05996 -0.41284,-4.54427 -0.19205,-0.557197 -0.32548,-1.036814 -0.29649,-1.065804 0.15438,-0.154357 4.50256,9.437384 5.17875,11.423894 0.33421,0.98184 1.08274,4.60899 1.17975,5.71677 0.0842,0.96061 -0.097,2.03066 -0.61494,3.63283 -0.51139,1.58187 -1.22266,2.76827 -2.9791,4.96909 -0.76469,0.95814 -1.5259,2.01895 -1.6916,2.35736 -0.32801,0.66989 -0.73924,2.14981 -0.62823,2.26082 0.10745,0.10746 2.82287,-2.36904 4.41914,-4.03033 3.13131,-3.25885 5.92325,-6.97579 8.10115,-10.78513 l 0.73852,-1.2917 -0.0763,-0.84247 c -0.15516,-1.71216 -0.74897,-3.2761 -1.59058,-4.18914 -0.26707,-0.28973 -0.8401,-0.7374 -1.27342,-0.99483 -1.37269,-0.8155 -2.6595,-2.32091 -3.18541,-3.72653 -0.34897,-0.93271 -0.50277,-2.93993 -0.48997,-6.394372 0.0137,-3.687929 -0.17498,-5.568797 -0.69336,-6.912981 -0.36275,-0.940634 -1.02548,-2.001998 -1.67798,-2.687225 -0.68518,-0.719574 -0.18143,-0.381617 0.87522,0.587167 1.60613,1.472561 6.06341,6.221914 6.79297,7.238078 0.87023,1.212094 2.30661,3.622552 2.52136,4.231166 0.22035,0.624587 0.4145,2.156397 0.4145,3.270557 0,1.11058 -0.2415,2.25519 -0.908,4.30342 -0.4876,1.49848 -0.53705,1.7542 -0.52426,2.71142 0.007,0.5813 0.0855,1.34756 0.17272,1.7028 l 0.1586,0.64588 0.3821,-0.74602 c 3.04889,-5.95286 5.21401,-14.634129 5.31177,-21.298123 0.016,-1.093154 0.002,-1.165064 -0.35376,-1.718271 -0.49319,-0.768554 -1.47861,-1.685818 -2.20835,-2.055608 -0.36814,-0.186537 -0.95615,-0.345667 -1.55487,-0.420737 -1.32765,-0.16647 -1.80151,-0.308257 -2.85433,-0.854034 -0.59622,-0.30909 -1.10287,-0.683377 -1.46794,-1.084474 -0.59962,-0.658797 -1.79757,-2.854885 -2.79036,-5.115233 -0.91313,-2.079068 -2.0364,-3.860046 -2.87812,-4.563373 -0.77701,-0.649247 -1.76218,-1.247334 -2.25799,-1.370791 -0.17762,-0.0442 -0.32295,-0.12367 -0.32295,-0.17654 0,-0.17546 6.94833,2.267618 8.84125,3.108642 1.03279,0.458867 3.71518,2.164418 4.24926,2.701805 0.66217,0.666277 1.44289,2.011038 1.77535,3.057932 0.1547,0.487157 0.38481,1.731571 0.51137,2.765355 0.19925,1.627731 0.2787,1.969828 0.59282,2.552705 0.40589,0.753157 0.68172,1.150624 0.74635,1.075514 0.0238,-0.0276 -0.002,-1.054204 -0.0553,-2.281388 -0.23092,-5.23364 -1.23738,-10.39081 -2.97584,-15.248463 -0.76693,-2.142998 -0.80507,-2.210108 -1.76591,-3.107422 -1.47087,-1.373621 -2.47671,-1.702571 -4.41667,-1.444411 -1.2085,0.16082 -2.53706,-0.0285 -3.59477,-0.512317 -0.78577,-0.359397 -2.35442,-1.888281 -4.10011,-3.996169 -2.2278,-2.689995 -3.68097,-3.678 -5.9731,-4.06111 -1.01739,-0.17004 2.38471,-0.005 5.10564,0.24814 3.01898,0.28054 3.4593,0.35437 5.25421,0.881168 1.8399,0.539987 2.64329,0.955244 3.53039,1.824758 1.02813,1.007747 1.37105,1.550774 2.21569,3.508552 0.67754,1.570451 0.79547,1.763951 1.45776,2.391885 0.39629,0.37578 0.74949,0.654287 0.78486,0.618907 0.11199,-0.11198 -1.90318,-4.047056 -3.04318,-5.942527 -1.62485,-2.701605 -3.18132,-4.866793 -5.30859,-7.384723 -0.91549,-1.08359 -1.15932,-1.22798 -2.52836,-1.49736 -1.09484,-0.21542 -2.07725,-0.13767 -3.1556,0.24976 -1.49244,0.53622 -3.0974,0.66664 -4.31156,0.3504 -0.8584,-0.22359 -2.70501,-1.01968 -4.63992,-2.00031 -2.81159,-1.42496 -4.60528,-1.91605 -6.45889,-1.7684 -0.72415,0.0577 -0.70607,0.0491 0.35231,-0.16636 0.61359,-0.12494 2.35749,-0.42309 3.87533,-0.66255 2.58078,-0.40716 2.93483,-0.43575 5.4607,-0.44102 2.55609,-0.005 2.74194,0.009 3.4643,0.27269 1.42287,0.51879 2.29096,1.0602 3.65821,2.28153 0.73716,0.65849 1.47071,1.26093 1.63011,1.33877 0.61663,0.30112 1.17058,0.48811 1.17058,0.39515 0,-0.0535 -0.80762,-0.8831 -1.79472,-1.8436 -2.82221,-2.74619 -5.65008,-5.03368 -8.65694,-7.0027 -1.51584,-0.99264 -2.00394,-1.14725 -3.66526,-1.16104 -1.19161,-0.01 -2.09624,0.22513 -3.07589,0.79911 -1.95828,1.14735 -3.86801,1.33619 -6.52893,0.64561 -0.80736,-0.20954 -1.95819,-0.53416 -2.55739,-0.72138 -2.00429,-0.62625 -3.452391,-0.85955 -4.899672,-0.78938 -0.710477,0.0345 -1.553531,0.1446 -1.873461,0.24478 -1.054234,0.33011 -0.677537,0.11868 0.668527,-0.375208 5.033906,-1.84701 7.318216,-2.507675 10.024296,-2.899212 1.19019,-0.172206 1.39626,-0.172531 2.36914,-0.0037 1.63337,0.283395 2.38559,0.599736 4.1615,1.750087 0.53535,0.346772 1.15831,0.689832 1.38437,0.762353 0.59571,0.191106 1.52665,0.351549 1.52665,0.263109 0,-0.192049 -4.23747,-2.366077 -6.03672,-3.09713 l -1.18549,-0.481679 -2.23126,-0.01553 c -2.12435,-0.01478 -2.27838,-0.03158 -3.215,-0.350526 -2.1651,-0.73729 -4.165891,-2.808604 -7.986,-8.26742 l -0.854404,-1.220922 0.745254,0.751184 c 0.40989,0.413151 0.961667,0.898674 1.226164,1.078941 0.630467,0.429685 2.520155,1.099361 3.907929,1.384909 1.438797,0.296042 3.434957,0.885707 4.191447,1.238152 0.72311,0.336888 1.73224,1.339135 2.46954,2.452687 1.11779,1.68821 1.85348,2.22939 5.43435,3.997536 2.89341,1.428691 5.08281,2.653116 7.0227,3.927439 0.68724,0.45146 1.26428,0.8061 1.28229,0.78808 0.018,-0.018 -0.17989,-0.28152 -0.43978,-0.58558 -0.34537,-0.40403 -0.78878,-0.71527 -1.64747,-1.15635 -1.45808,-0.748967 -2.36462,-1.427541 -2.98924,-2.237575 -0.70128,-0.909418 -0.83792,-1.228651 -1.28829,-3.009703 -0.34464,-1.362923 -0.432,-1.992669 -0.5733,-4.132776 -0.0917,-1.388661 -0.18884,-3.158985 -0.21589,-3.934052 l -0.0492,-1.409211 0.14815,0.82204 c 0.3447,1.912747 0.85335,2.710533 3.40674,5.343263 2.91322,3.003752 3.16079,3.451946 3.11347,5.63685 -0.0161,0.742772 -0.0347,1.667567 -0.0413,2.0551 -0.009,0.541217 0.0655,0.875984 0.32236,1.443684 0.54252,1.19882 1.00337,1.73082 2.48127,2.86435 0.76906,0.58986 1.8739,1.47136 2.4552,1.95888 1.45465,1.21998 5.33074,5.108 6.51341,6.53344 0.53588,0.64589 1.01632,1.19064 1.06762,1.21055 0.12692,0.0493 -0.20029,-1.32091 -0.40967,-1.71547 -0.0926,-0.17441 -0.51527,-0.73988 -0.93934,-1.2566 -1.31084,-1.59715 -1.94567,-3.10179 -1.94567,-4.61153 0,-1.37098 0.45755,-3.50054 1.22862,-5.71832 1.1819,-3.399397 2.32326,-6.220771 1.76165,-4.354664 -0.24982,0.830075 -0.21779,2.369634 0.073,3.50868 0.13465,0.527472 0.52788,1.672454 0.87383,2.544414 0.63202,1.59295 1.17306,3.30142 1.30318,4.1151 0.11836,0.74028 -0.28114,2.2448 -0.86545,3.25921 -0.70629,1.22618 -0.85176,1.67513 -0.85176,2.62855 0,1.44288 0.27129,2.29327 1.08548,3.40249 0.98687,1.344468 2.48772,3.656306 3.38103,5.207977 0.81677,1.418671 2.35648,4.564683 2.8874,5.899587 0.18593,0.467467 0.37041,0.850604 0.41002,0.851394 0.0396,8.4e-4 0.27487,-0.398267 0.52283,-0.886804 l 0.45086,-0.888244 0.006,-2.487968 c 0.006,-2.457525 0.01,-2.500125 0.35741,-3.481249 0.28006,-0.790817 0.48062,-1.132444 0.98381,-1.675951 1.06516,-1.150494 2.26215,-2.018162 4.15174,-3.009482 1.58853,-0.8334 4.34524,-2.13065 4.52769,-2.13065 0.0362,0 -0.18077,0.16335 -0.48217,0.36299 -0.68994,0.457 -1.45631,1.31538 -1.72214,1.92892 -0.37643,0.86875 -0.83254,2.336725 -1.07581,3.462359 -0.32656,1.511091 -0.98486,3.658109 -1.33112,4.341436 -0.48518,0.957434 -1.5373,1.669411 -2.881,1.949568 -1.05754,0.22051 -1.37181,0.381257 -1.91002,0.976994 -0.50234,0.556027 -0.81197,1.132284 -1.06257,1.977628 -0.18084,0.610007 -0.17927,0.622587 0.22743,1.820231 1.82396,5.37114 2.73864,10.81227 2.78105,16.543487 0.0137,1.846818 0.0514,2.411675 0.15536,2.325385 0.26506,-0.219977 0.61718,-1.237331 0.9846,-2.844812 0.56823,-2.485938 0.90169,-3.318042 1.89914,-4.739043 0.56268,-0.801637 1.05346,-1.207894 2.62259,-2.170858 1.3817,-0.847937 3.66829,-1.732631 6.94616,-2.687495 1.46238,-0.425997 1.55808,-0.428687 0.7758,-0.0217 -1.62483,0.845284 -2.47726,1.929628 -4.22148,5.36993 -1.35655,2.675715 -2.38889,4.391543 -2.94375,4.892833 -0.86214,0.778874 -2.22509,1.272561 -3.51328,1.272561 -0.29577,0 -0.72684,0.10699 -1.00709,0.24997 -0.65921,0.336297 -1.73192,1.445901 -1.73192,1.791508 0,0.14821 -0.0794,1.110264 -0.17648,2.137908 -0.57498,6.087347 -2.26584,12.348891 -4.76594,17.649101 -0.31815,0.67445 -0.56116,1.24355 -0.54005,1.26467 0.0211,0.0211 0.37814,-0.24223 0.7934,-0.58521 0.80807,-0.6674 0.88968,-0.7745 2.28717,-3.00133 1.18116,-1.88214 1.8399,-2.66217 3.08768,-3.65627 1.3553,-1.07977 2.05822,-1.43978 3.75687,-1.92406 2.29588,-0.65458 3.68372,-0.895 6.24388,-1.08165 2.95207,-0.21523 7.75097,-0.36993 7.75079,-0.24987 -7e-5,0.0485 -0.22472,0.0889 -0.49922,0.0898 -0.69842,0.002 -1.83187,0.28751 -2.88308,0.72513 -1.17132,0.48762 -3.25563,2.05977 -5.18513,3.91103 -2.51799,2.41591 -4.93763,4.34557 -5.93584,4.73384 -1.18418,0.46061 -3.35648,0.64411 -4.4625,0.37696 -1.13771,-0.27482 -2.49052,-0.0769 -3.7579,0.54975 -1.22568,0.60603 -1.70483,1.00226 -2.06512,1.70765 -0.18924,0.37052 -0.74775,1.34817 -1.2411,2.17254 -2.3999,4.01003 -4.86222,7.17842 -8.30038,10.6805 l -1.98132,2.01816 0.69536,-0.16221 c 1.70053,-0.39672 2.42751,-0.79804 4.25931,-2.35136 2.3623,-2.00313 3.76914,-2.86588 5.72765,-3.51245 1.55542,-0.51351 2.57791,-0.64846 3.94943,-0.52128 1.84982,0.17154 4.39085,0.55842 5.3205,0.81007 1.74014,0.47104 8.12205,2.70618 10.46294,3.66444 1.42586,0.58368 1.863,0.87813 0.76613,0.51603 -1.56055,-0.51517 -4.15748,-0.6015 -5.59152,-0.18587 -2.0685,0.59951 -3.56763,1.15152 -5.42556,1.99779 -2.28996,1.04306 -5.95288,2.40347 -7.16184,2.65992 -0.96888,0.20551 -2.08025,0.13941 -3.43717,-0.20442 -1.22819,-0.31122 -1.9174,-0.61921 -2.96004,-1.32279 -1.30008,-0.87728 -1.8221,-1.0464 -3.42917,-1.11099 -1.03327,-0.0415 -1.59541,-0.006 -2.28996,0.14884 -1.58758,0.35162 -2.05765,0.58938 -3.52877,1.78479 -4.08728,3.32128 -8.67311,6.0959 -13.5395,8.19197 -1.13002,0.48672 -2.12064,0.88528 -2.20138,0.88567 -0.0991,4.7e-4 -0.14678,-0.20208 -0.14678,-0.62376 z M 64.380482,139.1202 c -4.992922,-2.08366 -10.324495,-5.36035 -14.503144,-8.91337 -0.9342,-0.79434 -1.258856,-0.99592 -1.996383,-1.23961 -1.307409,-0.43199 -2.368241,-0.5833 -3.574625,-0.5099 -1.254552,0.0763 -1.827549,0.29298 -3.188186,1.20537 -1.978903,1.32697 -4.535683,1.88448 -6.412289,1.3982 -1.314392,-0.3406 -4.258162,-1.48535 -6.536062,-2.54171 -2.15533,-0.99952 -4.270855,-1.78104 -5.83081,-2.15405 -1.361335,-0.3255 -3.60956,-0.17862 -5.079036,0.33181 -0.274502,0.0954 -0.499095,0.1333 -0.499095,0.0843 0,-0.23434 9.708674,-3.83968 11.743435,-4.36096 0.484417,-0.1241 1.884821,-0.36224 3.11201,-0.5292 2.810574,-0.38237 3.641439,-0.34681 5.363402,0.2295 2.257396,0.75552 3.209481,1.33991 5.709754,3.50464 1.686585,1.46024 2.163596,1.77271 3.285751,2.15235 1.750354,0.59216 1.750413,0.58929 0.02508,-1.1973 -3.610428,-3.73862 -6.45246,-7.58363 -8.983621,-12.15405 -0.528387,-0.95408 -1.090035,-1.83644 -1.248109,-1.96077 -0.968428,-0.76177 -2.815802,-1.53769 -3.66553,-1.53957 -0.20311,-4.6e-4 -0.902661,0.089 -1.554559,0.19888 -1.106523,0.18643 -1.263421,0.18686 -2.361629,0.007 -1.296598,-0.21284 -2.263202,-0.58779 -3.009804,-1.1675 -1.072968,-0.83312 -3.037147,-2.57984 -4.540845,-4.03811 -3.267385,-3.16866 -4.718464,-4.07157 -7.339647,-4.56703 l -0.939475,-0.17756 2.231254,0.0543 c 2.46042,0.0598 6.999746,0.35825 8.105172,0.533 0.946712,0.14967 4.081011,1.01341 4.805484,1.32428 0.702793,0.30157 2.144663,1.35621 2.934708,2.14656 0.785331,0.78563 1.425778,1.67469 2.538248,3.52352 0.713169,1.18523 1.125597,1.73127 1.716808,2.27301 0.42798,0.39216 0.824108,0.71303 0.880286,0.71303 0.05618,0 -0.06128,-0.32373 -0.261015,-0.71941 -0.199735,-0.39568 -0.704606,-1.57109 -1.121935,-2.61204 -2.137803,-5.33237 -3.400437,-10.890385 -3.862666,-17.003129 l -0.07688,-1.016674 -0.640347,-0.655857 c -0.846497,-0.867004 -1.199296,-1.032374 -2.420835,-1.134734 -1.254524,-0.1051 -2.304871,-0.554947 -3.049702,-1.306124 -0.544593,-0.549234 -1.780554,-2.703892 -2.832507,-4.93791 -1.528884,-3.246882 -2.842365,-4.850223 -4.48357,-5.47298 l -0.352304,-0.13368 0.411021,0.0672 c 0.503418,0.0823 4.975146,1.577301 6.077579,2.031908 0.840711,0.34668 2.558733,1.400484 3.407418,2.090061 0.520214,0.422687 1.208748,1.355881 1.670953,2.264695 0.420285,0.826387 0.773521,1.965201 1.117014,3.601169 0.300719,1.432244 0.802415,2.859935 1.004996,2.859935 0.05127,0 0.0957,-1.063224 0.09871,-2.362728 0.01348,-5.820217 0.857358,-11.001017 2.726951,-16.741454 0.337518,-1.036334 0.344515,-1.100384 0.180497,-1.652691 -0.363412,-1.223731 -1.094699,-2.287705 -1.832553,-2.666215 -0.165399,-0.0848 -0.617798,-0.218487 -1.005331,-0.296967 -1.235916,-0.25028 -2.402101,-1.059054 -2.870149,-1.990518 -0.280957,-0.559127 -0.883386,-2.621225 -1.243984,-4.258116 -0.706529,-3.207212 -1.345379,-4.478962 -2.716749,-5.408232 -0.357442,-0.24221 -0.600202,-0.44038 -0.539469,-0.44038 0.201791,0 5.244579,2.55748 5.965654,3.02552 1.128926,0.73277 2.738045,2.232875 3.044083,2.837862 0.685593,1.355311 0.797594,1.996518 0.812688,4.652723 l 0.01405,2.471855 0.399231,0.786927 c 0.219578,0.432797 0.432061,0.786904 0.472186,0.786904 0.04013,0 0.330923,-0.620917 0.646221,-1.379841 1.48608,-3.576969 3.67597,-7.506048 6.011234,-10.78528 0.600598,-0.84338 0.863372,-1.78806 0.865949,-3.11312 0.0021,-1.04949 -0.106731,-1.41659 -0.738134,-2.49117 -0.556018,-0.94629 -0.904212,-2.11032 -0.904212,-3.02285 0,-0.79599 0.517226,-2.69429 1.18715,-4.35704 1.124863,-2.791903 1.417516,-4.775059 0.933934,-6.328804 -0.374948,-1.204711 -0.07531,-0.630858 0.554861,1.062667 2.156969,5.796597 2.724398,8.530607 2.195714,10.579467 -0.265026,1.02708 -0.844031,2.08299 -1.817279,3.3141 -0.787391,0.99601 -0.96864,1.3776 -1.181832,2.48819 l -0.09011,0.4694 0.253764,-0.3032 c 0.139571,-0.16676 0.716628,-0.86384 1.282348,-1.54907 2.167645,-2.62555 5.338335,-5.68839 8.358574,-8.07426 1.351582,-1.0677 1.773464,-1.56879 2.321012,-2.75678 0.251605,-0.545896 0.270253,-0.739149 0.271856,-2.817351 0.0015,-1.994961 0.02787,-2.295343 0.248635,-2.836441 0.329099,-0.806624 1.109366,-1.803208 2.744221,-3.505015 2.390899,-2.488816 3.03069,-3.514707 3.288514,-5.273051 0.163796,-1.117093 0.12916,1.437543 -0.05796,4.274859 -0.15141,2.295843 -0.231255,2.871984 -0.608994,4.394314 -0.353985,1.426604 -0.519316,1.878701 -0.890076,2.433916 -0.733072,1.097787 -1.512922,1.769787 -2.970465,2.559667 -0.96316,0.521962 -1.468855,0.878232 -1.80536,1.271912 -0.540697,0.63257 -0.533844,0.77329 0.01721,0.3534 1.427719,-1.08787 5.18245,-3.281263 8.209972,-4.796008 2.747126,-1.374456 3.684165,-2.095013 4.472701,-3.43938 0.271036,-0.462085 0.891324,-1.242718 1.378418,-1.73474 l 0.885627,-0.894586 1.467929,-0.477199 c 0.807361,-0.26246 2.04923,-0.60886 2.759707,-0.769778 2.612753,-0.591771 3.980273,-1.266148 5.136305,-2.532906 0.807719,-0.885083 0.535994,-0.44777 -1.636135,2.633196 -1.386995,1.967324 -2.037944,2.768549 -3.218387,3.961364 -1.192612,1.205113 -1.625553,1.56323 -2.231253,1.84563 -1.337097,0.623404 -2.075148,0.750323 -3.91379,0.673037 -1.548328,-0.06508 -1.686216,-0.05222 -2.583556,0.24102 -1.420528,0.464211 -6.775235,3.226994 -6.597977,3.404253 0.08695,0.08694 1.393447,-0.214106 1.774712,-0.408939 0.193767,-0.09902 0.72222,-0.429109 1.174343,-0.733537 1.949456,-1.312635 3.584317,-1.83409 5.40198,-1.723013 2.279952,0.139326 5.356791,1.001568 10.363896,2.904339 1.376013,0.522907 1.68234,0.732787 0.59844,0.410031 -0.345462,-0.102871 -1.077299,-0.218648 -1.626304,-0.257281 -1.17331,-0.08257 -2.824517,0.207623 -4.814809,0.846177 -0.678183,0.21759 -1.920052,0.56476 -2.759708,0.77149 -2.503657,0.61643 -3.569161,0.48599 -6.001136,-0.73468 -1.321598,-0.663349 -1.490564,-0.717667 -2.411042,-0.775093 -1.580855,-0.09863 -2.519525,0.114577 -3.597084,0.817023 -1.303357,0.84963 -3.396642,2.41884 -4.960001,3.71819 -1.531339,1.27274 -5.731203,5.35964 -5.621016,5.46984 0.03983,0.0398 0.368001,-0.0583 0.729283,-0.2181 0.452779,-0.20024 1.035467,-0.64876 1.875342,-1.44354 1.405586,-1.33013 2.138115,-1.80206 3.572888,-2.30183 1.007962,-0.3511 1.075395,-0.35849 3.318836,-0.3637 2.03095,-0.005 2.568915,0.0386 4.756092,0.38247 2.366384,0.37209 5.470908,0.9246 5.5298,0.98412 0.01548,0.0156 -0.720353,0.032 -1.635195,0.0363 -1.571338,0.007 -1.716501,0.0282 -2.624097,0.37572 -0.99655,0.38156 -1.667793,0.69711 -3.854064,1.81185 -0.710478,0.36226 -1.767387,0.862 -2.348687,1.11055 -1.04857,0.44832 -1.068956,0.45185 -2.583556,0.44679 -1.41322,-0.005 -1.612097,-0.0341 -2.676753,-0.39545 -1.061459,-0.36025 -1.233439,-0.38585 -2.231252,-0.33211 -1.428364,0.077 -2.203601,0.32977 -2.718954,0.88677 -1.505251,1.62688 -4.40935,5.73642 -5.907694,8.359866 -1.268468,2.220955 -2.913008,5.636817 -2.713799,5.636817 0.06601,0 0.422587,-0.303847 0.792391,-0.675237 0.601473,-0.604047 0.73901,-0.841744 1.304326,-2.254208 0.737506,-1.842698 1.498039,-3.044052 2.439379,-3.853286 0.943517,-0.811107 1.098953,-0.894257 2.552476,-1.365294 2.028014,-0.657198 2.534176,-0.759748 4.982713,-1.009498 2.359143,-0.24062 6.009192,-0.49939 6.077707,-0.43088 0.02113,0.0211 -0.331005,0.10444 -0.782531,0.18513 -0.451527,0.0807 -1.231289,0.347 -1.732806,0.59179 -0.741471,0.36189 -1.12469,0.661668 -2.050951,1.604355 -0.626505,0.637604 -1.491662,1.600621 -1.922568,2.139998 -1.438824,1.801048 -2.940065,3.268999 -3.734072,3.651279 -1.070321,0.515317 -2.261808,0.673854 -3.641106,0.484487 -0.885737,-0.1216 -1.23583,-0.12368 -1.709203,-0.0101 -0.75954,0.182197 -1.761217,0.840874 -2.622169,1.724228 -0.629982,0.646387 -0.716152,0.805547 -1.263354,2.333508 -1.717106,4.794693 -2.740936,9.878413 -3.046759,15.128353 -0.14598,2.505988 -0.150291,2.893455 -0.03219,2.893455 0.120653,0 0.7827,-1.134704 0.94667,-1.622531 0.072,-0.21422 0.215527,-1.161604 0.318942,-2.105278 0.107726,-0.983034 0.309047,-2.098888 0.471406,-2.612835 0.345125,-1.092514 1.305599,-2.739825 1.902512,-3.263012 0.52458,-0.459787 2.884155,-1.978288 3.768268,-2.425045 1.221167,-0.617107 8.543812,-3.323722 8.664809,-3.202722 0.01773,0.0178 -0.33929,0.212867 -0.793395,0.433617 -1.894714,0.921054 -3.1137,2.572455 -4.725138,6.401304 -0.723392,1.718811 -1.985994,4.002426 -2.520803,4.559273 -0.467325,0.486577 -1.54912,1.140584 -2.359706,1.426574 -0.279354,0.0986 -0.998101,0.252147 -1.597217,0.341297 -0.615424,0.0916 -1.332178,0.283187 -1.647608,0.440487 -0.705062,0.351567 -1.791955,1.440951 -2.217217,2.222298 l -0.326326,0.599557 0.134897,2.133848 c 0.445419,7.045798 2.100784,13.662956 4.940456,19.748956 0.561965,1.20441 0.58684,1.19358 0.822,-0.35778 0.178638,-1.17849 0.112914,-1.63867 -0.538576,-3.77101 -0.745734,-2.44081 -0.940928,-3.8494 -0.753972,-5.44101 0.07973,-0.67879 0.237516,-1.533547 0.350632,-1.899464 0.217529,-0.703687 1.883801,-3.603969 2.675108,-4.656253 1.01198,-1.345714 7.425858,-8.131745 7.425858,-7.856715 0,0.0483 -0.238778,0.380887 -0.530616,0.739194 -0.562759,0.690897 -1.197745,1.860101 -1.50775,2.776215 -0.334399,0.988204 -0.569151,3.827059 -0.483441,5.846277 0.0888,2.092098 -0.10949,5.672116 -0.36948,6.670546 -0.36719,1.41014 -1.573812,2.9856 -3.027333,3.95274 -1.196703,0.79626 -1.7495,1.38579 -2.192952,2.33869 -0.431687,0.92762 -0.6477,1.78139 -0.746463,2.95035 l -0.07937,0.93947 1.015542,1.76152 c 2.300878,3.991 4.892187,7.47108 7.996225,10.73877 1.230219,1.29508 3.79711,3.68994 3.873316,3.61374 0.09224,-0.0922 -0.42227,-1.85568 -0.716939,-2.45722 -0.167474,-0.34188 -0.785337,-1.22932 -1.37303,-1.97209 -2.016167,-2.54819 -2.744809,-3.86793 -3.350618,-6.06877 -0.462192,-1.67909 -0.435221,-2.88892 0.125838,-5.64478 0.239919,-1.17845 0.569964,-2.54086 0.733435,-3.02757 0.733173,-2.18293 4.781042,-11.313321 5.020633,-11.324581 0.05535,-0.002 0.05991,0.0877 0.01012,0.20079 -0.859703,1.951741 -1.097834,4.232501 -0.634515,6.077221 0.581741,2.31622 0.787954,2.95598 1.658133,5.14419 0.508683,1.27917 1.224808,3.28729 1.59139,4.46251 0.649997,2.0838 0.666427,2.1702 0.663129,3.48724 -0.003,1.20044 -0.04449,1.47181 -0.373419,2.4425 -0.429453,1.26736 -0.685539,1.7325 -1.661666,3.01818 -0.914825,1.20495 -1.216593,2.1159 -1.22543,3.69919 -0.0034,0.6136 0.06516,1.47445 0.152392,1.91301 l 0.158618,0.79739 0.95465,0.74521 c 1.568234,1.22418 3.515635,2.58697 5.160411,3.61126 1.665792,1.03737 5.638006,3.10265 7.213195,3.75036 l 0.967302,0.39774 0.0015,0.67526 c 8.31e-4,0.37139 -0.01167,0.67087 -0.02783,0.66553 -0.01615,-0.006 -0.504968,-0.20819 -1.086267,-0.45079 z"
       id="path128"
       sodipodi:nodetypes="ccsssssssssssscssssssccssssssssssscscsscsssssssssssssscsssssscssssssssssssssccssssscssscssscsssscssscsssssssssssssscsssccssscccssssssssssscsccsssssssssssssssssssssssscsssssssscsssssscscssssssssssssscssscccssssssscsssssssscsccsssccssssssssscssssscssssssssscsssssssscsssscsssssssscsssscsssssssssssscsssssssssssssssssssssccssccccssscscssssssssssssssscssssssssccssscscscssssssssssssssscssssssssccsssssssscssscsccc" />
    <path
       style="fill:#00ccff;stroke-width:0.159726;fill-opacity:1"
       d="m 63.714957,93.948406 c -0.126804,-0.330447 -0.121499,-15.68953 0.0056,-16.16393 0.110183,-0.411297 1.053976,-0.990414 9.073385,-5.567467 2.806412,-1.601761 5.16037,-2.876555 5.231014,-2.832895 0.07065,0.0437 0.126373,1.710321 0.123835,3.703689 l -0.0046,3.624312 -3.589153,2.076428 c -1.974032,1.142031 -3.7509,2.197995 -3.948594,2.346595 -0.354409,0.2664 -0.360563,0.33353 -0.439306,4.791743 -0.04393,2.486855 -0.133572,4.604223 -0.199215,4.705243 -0.08659,0.13328 -4.544028,2.720765 -6.053281,3.513862 -0.05668,0.0298 -0.146526,-0.0591 -0.199657,-0.19758 z"
       id="path5411" />
    <path
       style="fill:#00ccff;stroke-width:0.159726;fill-opacity:1"
       d="m 63.620054,113.7284 0.0016,-8.42553 1.236176,-0.7077 c 4.32693,-2.47714 5.745372,-3.2397 6.027947,-3.24066 0.316529,-0.001 5.882182,3.05531 6.272561,3.44457 0.163989,0.16352 -0.427458,0.56895 -3.078242,2.11008 -1.804675,1.04922 -3.395482,1.98445 -3.535129,2.0783 -0.21834,0.14673 -0.268177,0.82756 -0.35586,4.86152 l -0.101959,4.6909 -3.114649,1.80308 c -1.713058,0.9917 -3.168557,1.80486 -3.234444,1.80703 -0.06589,0.002 -0.119031,-3.78755 -0.118099,-8.42159 z"
       id="path5487" />
    <path
       style="fill:#80e5ff;stroke-width:0.159726;fill-opacity:1"
       d="m 57.788373,119.82487 -3.993139,-2.29932 -0.113128,-0.76053 c -0.153401,-1.03128 -0.842415,-3.22605 -2.097723,-6.68203 -2.017707,-5.55494 -2.249739,-6.89239 -1.649799,-9.50949 0.487757,-2.127731 -0.09305,-2.258638 6.371355,1.43605 l 5.664292,3.23741 0.105299,4.56619 c 0.174752,7.57799 0.09779,12.37163 -0.197895,12.32591 -0.05287,-0.008 -1.893033,-1.04956 -4.089262,-2.31419 z"
       id="path5526" />
    <path
       style="fill:#80e5ff;stroke-width:0.159726;fill-opacity:1"
       d="m 60.184257,93.292429 c -0.966338,-0.550537 -4.218752,-2.419535 -7.227583,-4.153346 l -5.470602,-3.152382 v -8.430752 c 0,-4.636913 0.02939,-8.430752 0.06531,-8.430752 0.03592,0 3.288334,1.855138 7.227586,4.122526 l 7.162273,4.122526 0.140682,4.343356 c 0.08109,2.503615 0.08109,6.087747 0,8.461572 l -0.140682,4.118206 z"
       id="path5602" />
    <path
       style="fill:#80e5ff;stroke-width:0.159726;fill-opacity:1"
       d="m 107.06363,92.518415 c -3.06693,-1.767821 -3.11634,-1.804771 -3.22524,-2.411828 -0.0608,-0.339067 -0.117,-2.449335 -0.12484,-4.689473 l -0.0143,-4.072976 -0.74116,-0.450187 c -0.40763,-0.2476 -2.16634,-1.277634 -3.908224,-2.288958 l -3.167052,-1.838781 v -3.740649 c 0,-2.057358 0.0525,-3.740646 0.11669,-3.740646 0.0642,0 3.289562,1.814868 7.167516,4.033046 l 7.05085,4.033056 0.1,1.182104 c 0.13105,1.549511 0.10285,14.096869 -0.0338,15.045906 l -0.1058,0.734704 z"
       id="path5641" />
    <path
       style="fill:#aade87;fill-opacity:1;stroke-width:0.159726"
       d="m 109.69911,121.92684 c -0.1757,-0.11568 -1.46948,-0.87402 -2.87506,-1.68519 -1.40559,-0.81117 -2.66343,-1.57783 -2.7952,-1.70369 -0.19818,-0.18927 -0.25339,-1.01907 -0.31945,-4.80043 l -0.0799,-4.57161 -3.42534,-2.02505 c -1.883928,-1.11378 -3.446739,-2.09078 -3.472919,-2.17112 -0.0524,-0.16072 -0.13103,-0.11213 3.659099,-2.26029 l 2.67069,-1.51368 1.32245,0.71666 c 0.72735,0.39417 2.36467,1.32186 3.63848,2.06154 l 2.31602,1.34488 0.0442,8.05815 c 0.0243,4.43198 0.005,8.21987 -0.043,8.41753 -0.0992,0.40886 -0.19124,0.42788 -0.64017,0.1323 z"
       id="path5680" />
    <path
       style="fill:#80e5ff;fill-opacity:1;stroke-width:0.159726"
       d="m 85.692434,135.85838 c -0.10542,-0.10542 -0.19277,-0.12339 -0.19412,-0.0399 -10e-4,0.0835 -0.0553,0.0738 -0.11979,-0.0215 -0.16068,-0.23724 -4.030014,-2.47901 -4.033067,-2.33662 -0.0013,0.0627 -0.05525,0.0358 -0.119795,-0.0598 -0.162619,-0.24089 -2.911973,-1.84434 -2.914992,-1.70004 -0.0013,0.0643 -0.05525,0.0387 -0.119795,-0.0569 -0.162618,-0.24089 -2.911973,-1.84434 -2.914991,-1.70005 -0.0013,0.0643 -0.05525,0.0387 -0.119796,-0.0569 -0.141631,-0.20981 -2.912546,-1.85432 -2.912546,-1.72857 0,0.0486 -0.112528,-0.0242 -0.250061,-0.16168 -0.220887,-0.22089 -0.248285,-1.21355 -0.234831,-8.50825 0.0084,-4.542 0.04338,-8.28634 0.0778,-8.32075 0.03441,-0.0344 0.391655,0.13029 0.793872,0.36601 0.402216,0.23571 0.732403,0.36783 0.73375,0.2936 0.0013,-0.0742 0.05525,-0.0527 0.119793,0.0479 0.168079,0.26187 5.432245,3.23394 5.538964,3.12722 0.04891,-0.0489 0.08892,-0.0166 0.08892,0.0718 0,0.14721 0.796803,0.5984 0.940496,0.53256 0.0341,-0.0156 0.105979,0.0352 0.159726,0.11304 0.154567,0.22373 1.774566,1.17385 1.777286,1.04237 0.0013,-0.0651 0.05525,-0.0401 0.119792,0.0556 0.06454,0.0957 0.993056,0.68856 2.063371,1.31757 1.664301,0.9781 1.953321,1.20726 1.996551,1.58306 0.108387,0.94206 -0.0424,16.33211 -0.16,16.33211 -0.0687,0 -0.21112,-0.0863 -0.316527,-0.19167 z"
       id="path6653" />
    <path
       style="fill:#80e5ff;fill-opacity:1;stroke-width:0.159726"
       d="m 85.820211,108.1274 c -0.131777,-0.0425 -0.275527,-0.12628 -0.319447,-0.18623 -0.16699,-0.22792 -2.053547,-1.25027 -2.142669,-1.16115 -0.05142,0.0514 -0.09349,0.0212 -0.09349,-0.0672 0,-0.15402 -0.56461,-0.47954 -0.860631,-0.49618 -0.07803,-0.004 -0.185843,-0.079 -0.239591,-0.1657 -0.135273,-0.21834 -2.89234,-1.79828 -2.895364,-1.6592 -0.0013,0.0619 -0.05525,0.0314 -0.119793,-0.0678 -0.155067,-0.23825 -2.616361,-1.69927 -2.872616,-1.70518 -0.109812,-0.003 -0.199657,-0.0531 -0.199657,-0.11232 0,-0.0998 -1.433928,-0.93743 -1.712865,-1.00057 -0.06819,-0.0154 -0.231793,-0.11994 -0.363569,-0.23223 -0.131773,-0.1123 -0.706784,-0.47588 -1.277805,-0.80796 L 71.6845,99.861893 v -8.275165 c 0,-4.551343 0.04849,-8.305452 0.107754,-8.342452 0.05926,-0.037 0.921784,0.406367 1.916708,0.985264 0.994923,0.578897 1.880827,1.064954 1.968677,1.080124 0.08785,0.0152 0.195664,0.0728 0.239588,0.12802 0.118941,0.14958 2.589051,1.592081 2.785525,1.626691 0.09317,0.0164 0.205383,0.077 0.249365,0.13456 0.180043,0.235747 4.771936,2.816692 4.858076,2.730555 0.0513,-0.0513 0.0933,-0.0228 0.0933,0.0633 0,0.0862 0.497197,0.4367 1.104874,0.779004 0.853614,0.480807 1.116964,0.714587 1.158004,1.027974 0.0292,0.2231 0.0172,4.005436 -0.0267,8.405222 -0.07,7.01488 -0.10936,7.99012 -0.31945,7.92239 z"
       id="path6692" />
    <path
       style="fill:#80e5ff;fill-opacity:1;stroke-width:0.159726"
       d="m 107.27631,120.42578 c -1.42039,-0.85043 -2.74907,-1.66213 -2.95264,-1.80379 -0.35072,-0.24405 -0.37581,-0.3864 -0.47876,-2.71533 -0.0597,-1.35178 -0.11468,-3.42843 -0.12207,-4.61478 l -0.0135,-2.15699 -3.4341,-2.05101 c -1.888738,-1.12805 -3.434082,-2.10185 -3.434082,-2.16399 0,-0.16035 5.953912,-3.53043 6.235832,-3.52965 0.12817,2.6e-4 1.77839,0.88084 3.66714,1.95664 l 3.4341,1.95599 0.0414,8.34566 c 0.0328,6.62813 -3e-5,8.34338 -0.15973,8.33457 -0.11059,-0.006 -1.36322,-0.70689 -2.7836,-1.55732 z"
       id="path6770" />
    <path
       style="fill:#80e5ff;fill-opacity:1;stroke-width:0.159726"
       d="m 47.488517,100.73738 c 0.0013,-1.793584 0.06144,-3.354045 0.133548,-3.467712 0.100066,-0.15773 0.404291,-0.0491 1.285015,0.458617 0.634651,0.365907 1.120894,0.746404 1.080543,0.845564 -0.239522,0.588567 -2.383952,5.303011 -2.437178,5.358041 -0.03541,0.0366 -0.06327,-1.40092 -0.06193,-3.19451 z"
       id="path7039" />
    <path
       style="fill:#80e5ff;fill-opacity:1;stroke-width:0.159726"
       d="m 79.553606,71.583732 -0.04255,-4.258346 -3.946636,-2.254655 -3.946636,-2.254668 -0.0066,-3.866979 -0.0066,-3.867007 3.474032,2.007806 c 1.910718,1.104292 5.179672,2.988195 7.26434,4.186449 l 3.790295,2.178638 0.003,4.339813 0.003,4.339806 -2.91498,1.665841 c -1.603245,0.916214 -3.075538,1.750401 -3.271758,1.853741 l -0.356767,0.187897 z"
       id="path7156" />
    <path
       style="fill:#00ccff;fill-opacity:1;stroke-width:0.159726;stroke:#ffffff;stroke-opacity:1"
       d="m 111.8554,85.932241 v -8.440702 l 7.14773,-4.129346 c 3.93124,-2.271148 7.20162,-4.157816 7.26751,-4.192606 0.0659,-0.0348 0.1198,0.755124 0.1198,1.755348 v 1.818601 l -0.47918,-0.0703 c -0.61867,-0.0908 -0.61867,0.18885 0,0.445107 l 0.47918,0.19848 v 6.330844 6.330834 l -0.72077,0.435357 c -0.88615,0.535257 -12.95604,7.504188 -13.45488,7.768615 l -0.35939,0.19049 z"
       id="path8513" />
    <path
       style="fill:#00ccff;fill-opacity:1;stroke-width:0.159726;stroke:#ffffff;stroke-opacity:1"
       d="m 87.736902,99.761133 v -8.374142 l 6.908101,-3.971999 c 3.799446,-2.184598 7.069817,-4.075156 7.267477,-4.201246 l 0.35939,-0.229237 v 8.474462 8.474462 l -1.47747,0.866847 c -4.242489,2.48917 -12.517561,7.19385 -12.768841,7.25956 -0.275677,0.0721 -0.288657,-0.30096 -0.288657,-8.298707 z"
       id="path8552" />
    <path
       style="fill:#00ccff;fill-opacity:1;stroke-width:0.159726"
       d="m 87.775412,127.64997 0.0414,-8.43536 7.107748,-4.11157 c 3.909259,-2.26137 7.1623,-4.1157 7.22896,-4.12075 0.0667,-0.005 0.10261,3.77951 0.0799,8.4101 l -0.0413,8.41926 -1.59725,0.94684 c -2.573918,1.5258 -12.353181,7.13208 -12.618121,7.23375 -0.215367,0.0827 -0.237927,-0.85265 -0.201217,-8.34227 z"
       id="path8591" />
    <path
       style="fill:#00ccff;fill-opacity:1;stroke-width:0.159726"
       d="m 111.8554,113.77852 v -8.3754 l 1.71705,-1.0302 c 1.92763,-1.15655 7.11215,-4.11426 8.05456,-4.595047 l 0.61511,-0.313797 0.15929,0.418957 c 0.0876,0.230417 0.26812,1.041017 0.40114,1.801317 0.39375,2.25059 0.0879,3.65496 -2.00573,9.20892 -1.31676,3.49313 -1.92939,5.46555 -2.05692,6.62238 l -0.0962,0.87225 -3.27437,1.87866 c -1.80091,1.03326 -3.32829,1.88062 -3.39417,1.88301 -0.0659,0.002 -0.1198,-3.76458 -0.1198,-8.37105 z"
       id="path8630" />
    <path
       style="fill:#00ccff;fill-opacity:1;stroke:#55ddff;stroke-width:0.159726"
       d="m 125.92073,106.08948 c -0.30226,-0.69618 -1.14265,-2.55571 -1.86754,-4.13228 -1.19495,-2.598914 -1.29274,-2.884144 -1.04769,-3.055621 0.14866,-0.10403 0.96294,-0.559167 1.80952,-1.011427 l 1.53923,-0.822274 0.11086,3.877902 c 0.061,2.13285 0.0871,4.44752 0.058,5.1437 l -0.0528,1.26579 z"
       id="path8669" />
    <path
       style="fill:#00ccff;fill-opacity:1;stroke:#ffffff;stroke-width:0.159726;stroke-opacity:1"
       d="m 90.970654,73.94626 -3.235102,-1.866161 0.0406,-4.296936 0.0406,-4.296933 6.468841,-3.725139 c 3.557872,-2.048828 6.811587,-3.911884 7.230477,-4.140116 l 0.76161,-0.414967 -0.0429,3.803976 -0.0429,3.803949 -3.833398,2.242958 -3.833399,2.242955 -0.11318,3.747789 c -0.0623,2.061278 -0.13413,3.976609 -0.15973,4.256286 l -0.0465,0.508497 z"
       id="path14275" />
    <path
       style="fill:#d5fff6;fill-opacity:1;stroke:#ffffff;stroke-width:0.159726;stroke-opacity:1"
       d="m 86.299378,61.909556 c -0.833114,-0.435677 -8.61894,-4.906975 -11.540157,-6.627367 -1.251849,-0.737251 -2.274541,-1.392208 -2.272644,-1.45546 0.0019,-0.06325 0.523,-0.408164 1.15801,-0.766476 0.635011,-0.358312 3.63338,-2.072614 6.663042,-3.809561 3.029664,-1.736945 5.785602,-3.299468 6.124329,-3.472273 l 0.615857,-0.314187 5.29601,3.029111 c 7.409748,4.23808 9.043805,5.201439 9.046875,5.333587 0.004,0.180404 -13.462141,8.073556 -14.225345,8.338046 -0.12489,0.0433 -0.514577,-0.0717 -0.865977,-0.25542 z"
       id="path18171" />
    <path
       style="fill:#d5fff6;fill-opacity:1;stroke:#ffffff;stroke-width:0.159726;stroke-opacity:1"
       d="m 61.852661,75.655651 c -4.21183,-2.247548 -13.551352,-7.809868 -13.384548,-7.971405 0.157429,-0.15246 3.004849,-1.812671 9.61327,-5.60509 l 4.685464,-2.688885 0.745207,0.37847 c 0.941977,0.478387 7.202328,4.073866 10.938941,6.282504 2.306976,1.363611 2.806393,1.720048 2.635472,1.880948 -0.388681,0.365897 -13.913612,8.220885 -14.154936,8.220885 -0.08068,0 -0.566174,-0.22384 -1.07887,-0.497427 z"
       id="path18210" />
    <path
       style="fill:#d5fff6;fill-opacity:1;stroke:#ffffff;stroke-width:0.159726;stroke-opacity:1"
       d="m 86.285549,89.403813 c -4.21183,-2.247548 -13.551352,-7.809868 -13.384548,-7.971405 0.157429,-0.15246 3.004849,-1.812671 9.61327,-5.60509 l 4.685464,-2.688885 0.745207,0.37847 c 0.941977,0.478387 7.202328,4.073866 10.938941,6.282504 2.306987,1.363611 2.806397,1.720048 2.635477,1.880948 -0.38868,0.365897 -13.913617,8.220885 -14.154941,8.220885 -0.08068,0 -0.566174,-0.22384 -1.07887,-0.497427 z"
       id="path18210-1" />
    <path
       style="fill:#d5fff6;fill-opacity:1;stroke:#ffffff;stroke-width:0.159726;stroke-opacity:1"
       d="M 110.11394,75.255891 C 105.90211,73.00835 96.562601,67.44603 96.729411,67.284493 c 0.157427,-0.15246 3.004832,-1.812671 9.613249,-5.60509 l 4.68546,-2.688885 0.74521,0.37847 c 0.94198,0.478387 7.20233,4.073866 10.93894,6.282504 2.30699,1.363611 2.8064,1.720048 2.63548,1.880948 -0.38868,0.365897 -13.91362,8.220868 -14.15494,8.220868 -0.0807,0 -0.56618,-0.223837 -1.07887,-0.497417 z"
       id="path18210-1-3" />
    <path
       style="fill:#d5fff6;fill-opacity:1;stroke:#ffffff;stroke-width:0.159726;stroke-opacity:1"
       d="m 82.201183,115.31106 c -5.441984,-3.11243 -9.718053,-5.62307 -9.718053,-5.70584 0,-0.0742 3.88544,-2.38752 5.359103,-3.19065 l 1.126377,-0.61387 3.58553,2.04679 c 1.97204,1.12573 3.773488,2.15555 4.003238,2.28848 0.406937,0.23546 0.512437,0.18776 4.090026,-1.84946 2.019778,-1.15013 3.851979,-2.17301 4.071556,-2.27306 0.36184,-0.16486 0.674527,-0.0242 3.337172,1.50175 1.615861,0.92601 3.064728,1.77739 3.219708,1.89196 0.25356,0.18745 0.1656,0.27842 -0.87849,0.90862 -1.884611,1.13752 -11.790184,6.80551 -12.685648,7.25875 l -0.823847,0.41699 z"
       id="path18249" />
    <path
       style="fill:#d5fff6;fill-opacity:1;stroke:#ffffff;stroke-width:0.159726;stroke-opacity:1"
       d="m 62.260691,103.77425 c -0.131773,-0.0837 -2.395884,-1.37975 -5.031356,-2.88014 -6.416096,-3.652692 -8.864772,-5.101876 -8.864772,-5.246363 0,-0.11561 5.21884,-3.137612 6.098995,-3.531672 0.399923,-0.179047 0.668284,-0.0573 3.993142,1.811641 1.960422,1.101974 3.751127,2.088238 3.979346,2.191698 0.491858,0.222977 0.816338,0.0736 4.998598,-2.301708 1.484014,-0.842834 2.723883,-1.532431 2.755265,-1.532431 0.03139,0 0.05706,1.714261 0.05706,3.809469 v 3.809469 l -3.54112,2.020487 c -1.947616,1.11128 -3.690622,2.01628 -3.873346,2.01111 -0.182724,-0.005 -0.440042,-0.0779 -0.571815,-0.16156 z"
       id="path18288" />
    <path
       style="fill:#d5fff6;fill-opacity:1;stroke:#ffffff;stroke-width:0.159726;stroke-opacity:1"
       d="m 107.69976,102.17521 c -1.83236,-1.04965 -3.46182,-2.02634 -3.62103,-2.17042 -0.26379,-0.238717 -0.28947,-0.594014 -0.28947,-4.004396 v -3.742429 l 0.67883,0.381777 c 0.37336,0.20998 1.99057,1.123304 3.59379,2.029611 2.86621,1.620271 2.92364,1.644238 3.4341,1.433361 0.28553,-0.11796 2.12851,-1.123824 4.09552,-2.235268 l 3.57636,-2.020788 1.53485,0.879184 c 0.84418,0.483557 2.31465,1.345824 3.26772,1.916151 l 1.73287,1.036944 -1.89259,1.121194 c -2.72676,1.615358 -11.35952,6.565269 -12.12776,6.953899 l -0.65163,0.32963 z"
       id="path18327" />
    <text
       xml:space="preserve"
       transform="matrix(0.50880764,0,0,0.50880764,-103.03562,-221.89621)"
       id="text21375"
       style="font-style:normal;font-variant:normal;font-weight:normal;font-stretch:normal;font-size:40px;line-height:1.25;font-family:QUBE;-inkscape-font-specification:QUBE;white-space:pre;shape-inside:url(#rect21377);fill:#000000;stroke:#ffffff;stroke-width:2.37614;stroke-miterlimit:4;stroke-dasharray:none"><tspan
         x="270.81836"
         y="743.3602"
         id="tspan881">kubeCSR</tspan></text>
  </g>
</svg>
